<svg width="60" height="60" viewBox="0 0 60 60" fill="none" xmlns="http://www.w3.org/2000/svg">
<g clip-path="url(#clip0_2_5)">
<path d="M10 45H15V55.2025L27.7525 45H40C42.7575 45 45 42.7575 45 40V20C45 17.2425 42.7575 15 40 15H10C7.2425 15 5 17.2425 5 20V40C5 42.7575 7.2425 45 10 45Z" fill="#19D2AD"/>
<path d="M50 5H20C17.2425 5 15 7.2425 15 10H45C47.7575 10 50 12.2425 50 15V35C52.7575 35 55 32.7575 55 30V10C55 7.2425 52.7575 5 50 5Z" fill="#19D2AD"/>
<rect x="28.9091" y="3.81818" width="32.7273" height="20.7273" rx="10.3636" fill="#E6256C"/>
<rect x="28.9091" y="3.81818" width="32.7273" height="20.7273" rx="10.3636" stroke="#0A183C" stroke-width="3.27273"/>
<path d="M38.6836 10V17.6364H37.8982V10.6982H36.0982V10H38.6836ZM43.5527 17.7018C42.9636 17.7018 42.4363 17.5455 41.9709 17.2327C41.5127 16.92 41.1527 16.4727 40.8909 15.8909C40.6363 15.3018 40.509 14.6109 40.509 13.8182C40.509 13.0255 40.6363 12.3382 40.8909 11.7564C41.1527 11.1673 41.5127 10.7164 41.9709 10.4036C42.4363 10.0909 42.9636 9.93454 43.5527 9.93454C44.1418 9.93454 44.6654 10.0909 45.1236 10.4036C45.589 10.7164 45.9527 11.1673 46.2145 11.7564C46.4763 12.3382 46.6072 13.0255 46.6072 13.8182C46.6072 14.6109 46.4763 15.3018 46.2145 15.8909C45.9527 16.4727 45.589 16.92 45.1236 17.2327C44.6654 17.5455 44.1418 17.7018 43.5527 17.7018ZM43.5527 16.9818C43.9963 16.9818 44.3854 16.8582 44.7199 16.6109C45.0618 16.3636 45.3272 16.0036 45.5163 15.5309C45.7054 15.0582 45.7999 14.4873 45.7999 13.8182C45.7999 13.1491 45.7054 12.5782 45.5163 12.1055C45.3272 11.6327 45.0618 11.2727 44.7199 11.0255C44.3854 10.7782 43.9963 10.6545 43.5527 10.6545C43.109 10.6545 42.7163 10.7782 42.3745 11.0255C42.0399 11.2727 41.7781 11.6327 41.589 12.1055C41.3999 12.5782 41.3054 13.1491 41.3054 13.8182C41.3054 14.4873 41.3999 15.0582 41.589 15.5309C41.7781 16.0036 42.0399 16.3636 42.3745 16.6109C42.7163 16.8582 43.109 16.9818 43.5527 16.9818ZM50.7757 17.7018C50.1866 17.7018 49.6593 17.5455 49.1939 17.2327C48.7357 16.92 48.3757 16.4727 48.1139 15.8909C47.8593 15.3018 47.732 14.6109 47.732 13.8182C47.732 13.0255 47.8593 12.3382 48.1139 11.7564C48.3757 11.1673 48.7357 10.7164 49.1939 10.4036C49.6593 10.0909 50.1866 9.93454 50.7757 9.93454C51.3648 9.93454 51.8884 10.0909 52.3466 10.4036C52.812 10.7164 53.1757 11.1673 53.4375 11.7564C53.6993 12.3382 53.8302 13.0255 53.8302 13.8182C53.8302 14.6109 53.6993 15.3018 53.4375 15.8909C53.1757 16.4727 52.812 16.92 52.3466 17.2327C51.8884 17.5455 51.3648 17.7018 50.7757 17.7018ZM50.7757 16.9818C51.2193 16.9818 51.6084 16.8582 51.943 16.6109C52.2848 16.3636 52.5502 16.0036 52.7393 15.5309C52.9284 15.0582 53.023 14.4873 53.023 13.8182C53.023 13.1491 52.9284 12.5782 52.7393 12.1055C52.5502 11.6327 52.2848 11.2727 51.943 11.0255C51.6084 10.7782 51.2193 10.6545 50.7757 10.6545C50.332 10.6545 49.9393 10.7782 49.5975 11.0255C49.263 11.2727 49.0011 11.6327 48.812 12.1055C48.623 12.5782 48.5284 13.1491 48.5284 13.8182C48.5284 14.4873 48.623 15.0582 48.812 15.5309C49.0011 16.0036 49.263 16.3636 49.5975 16.6109C49.9393 16.8582 50.332 16.9818 50.7757 16.9818Z" fill="white"/>
</g>
<defs>
<clipPath id="clip0_2_5">
<rect width="60" height="60" fill="white"/>
</clipPath>
</defs>
</svg>
